IKResults
version=1
nRows=17
nColumns=40
inDegrees=yes

Units are S.I. units (second, meters, Newtons, ...)
Angles are in degrees.

endheader
time	pelvis_tilt	pelvis_list	pelvis_rotation	pelvis_tx	pelvis_ty	pelvis_tz	hip_flexion_r	hip_adduction_r	hip_rotation_r	knee_angle_r	knee_angle_r_beta	ankle_angle_r	subtalar_angle_r	mtp_angle_r	hip_flexion_l	hip_adduction_l	hip_rotation_l	knee_angle_l	knee_angle_l_beta	ankle_angle_l	subtalar_angle_l	mtp_angle_l	lumbar_extension	lumbar_bending	lumbar_rotation	arm_flex_r	arm_add_r	arm_rot_r	elbow_flex_r	pro_sup_r	wrist_flex_r	wrist_dev_r	arm_flex_l	arm_add_l	arm_rot_l	elbow_flex_l	pro_sup_l	wrist_flex_l	wrist_dev_l
      2.12000000	     18.80476688	     -0.48211918	     -0.98889267	      0.72921247	      0.95257614	     -1.04057378	     -5.26709287	     -1.40722678	     -4.02196115	    -55.23240300	     -0.96398729	      2.64069644	    -15.08480629	     12.82722177	    -17.24778619	     -1.76863935	     12.64669233	    -14.37982118	     -0.25097523	      9.53234420	      1.31978556	     -5.32842655	    -24.91289644	      0.24606478	     -1.85631657	     -0.57299403	     -8.01570414	     -3.34459256	     18.36471884	     89.95437384	      0.00000000	      0.00000000	      6.49172692	     10.83688838	      5.77480367	     23.91586821	     89.95437384	      0.00000000	      0.00000000
      2.13000000	     18.76141342	     -0.75008730	     -0.78096454	      0.73676682	      0.95258803	     -1.04159061	     -4.46233787	     -0.97859148	     -4.11404977	    -53.94181597	     -0.94146229	      3.62039495	    -15.09083237	     12.61232218	    -17.88389414	     -1.50444732	     12.43662309	    -14.06881842	     -0.24554720	      9.72822541	      0.91856877	     -5.30462621	    -24.92459239	      0.64273844	     -2.07719384	     -0.89453940	     -7.99861876	     -3.00693650	     17.94810859	     89.95437384	      0.00000000	      0.00000000	      7.25063490	     10.91089591	      6.08605024	     24.43609327	     89.95437384	      0.00000000	      0.00000000
      2.14000000	     18.49223914	     -0.76305397	     -0.66954781	      0.74452495	      0.95208325	     -1.04294058	     -3.35157692	     -1.09018531	     -4.54556947	    -52.68705561	     -0.91956259	      4.15187937	    -15.06570476	     12.44476156	    -18.20544214	     -1.52544736	     12.70299516	    -13.88743155	     -0.24238141	      9.94112709	      0.79943771	     -5.25072432	    -24.63612398	      0.79540846	     -2.30795877	     -1.33027442	     -8.00834359	     -2.91326409	     17.75459484	     89.95437384	      0.00000000	      0.00000000	      7.90589183	     10.96755045	      6.19585118	     24.97716085	     89.95437384	      0.00000000	      0.00000000
      2.15000000	     18.71254746	     -1.13668017	     -0.23841987	      0.75237533	      0.95235807	     -1.04400709	     -3.13834510	     -0.59604871	     -5.10222239	    -50.79365849	     -0.88651658	      4.84294041	    -15.10801684	     12.39385978	    -19.19521536	     -1.06118244	     12.44574948	    -13.44716310	     -0.23469727	     10.03629354	      0.24987581	     -5.27384873	    -24.90932007	      1.37159427	     -2.72504148	     -1.64823075	     -8.02535806	     -2.58078725	     17.54768056	     89.95437384	      0.00000000	      0.00000000	      8.47820815	     11.00453015	      6.75237259	     25.75991532	     89.95437384	      0.00000000	      0.00000000
      2.16000000	     18.61183543	     -1.24846254	      0.00573396	      0.76003298	      0.95202485	     -1.04531663	     -2.42415779	     -0.55355003	     -5.69433007	    -49.08773024	     -0.85674252	      5.46742660	    -15.09599694	     12.29766388	    -19.72051578	     -0.94061013	     12.41945931	    -13.20698435	     -0.23050536	     10.25791418	     -0.11155710	     -5.28008233	    -24.83669954	      1.65606586	     -3.03169869	     -2.00316390	     -8.05502417	     -2.49278292	     17.42575288	     89.95437384	      0.00000000	      0.00000000	      9.05590005	     11.02608188	      7.00876729	     26.50337094	     89.95437384	      0.00000000	      0.00000000
      2.17000000	     18.21629821	     -1.15262314	      0.01224716	      0.76758234	      0.95106166	     -1.04621855	     -1.22303619	     -0.85074136	     -6.31202661	    -47.64808134	     -0.83161590	      5.80538538	    -14.97037480	     12.15065807	    -19.81477108	     -1.08206582	     12.66193248	    -13.17893188	     -0.23001575	     10.44604763	     -0.14925266	     -5.22655093	    -24.44913939	      1.62789840	     -3.14860383	     -2.40586279	     -8.05528553	     -2.41748136	     17.34821211	     89.95437384	      0.00000000	      0.00000000	      9.66359971	     11.05712997	      7.04956212	     27.14206279	     89.95437384	      0.00000000	      0.00000000
      2.18000000	     18.40063885	     -1.46689571	      0.66948715	      0.77535256	      0.95109702	     -1.04747700	     -1.15764564	     -0.47473229	     -7.32246866	    -45.38833056	     -0.79217581	      6.41333215	    -15.02088747	     12.21047530	    -20.70701558	     -0.60592512	     12.07234471	    -12.81166532	     -0.22360574	     10.81066825	     -0.60511860	     -5.31646499	    -24.67611940	      2.22564080	     -3.80288410	     -2.66785602	     -8.03663422	     -2.36186268	     17.25642749	     89.95437384	      0.00000000	      0.00000000	     10.12299212	     11.13052427	      7.40239882	     28.05843610	     89.95437384	      0.00000000	      0.00000000
      2.19000000	     17.95784015	     -1.34364122	      0.58964866	      0.78280688	      0.94997214	     -1.04830448	      0.05291802	     -0.85683045	     -8.07922481	    -43.85490682	     -0.76541252	      6.58344460	    -14.82328330	     12.09055722	    -20.74994190	     -0.82434548	     12.38708768	    -12.79391532	     -0.22329595	     10.99157664	     -0.56840254	     -5.25642363	    -24.27054704	      2.14263882	     -3.81772711	     -3.04222830	     -8.08603071	     -2.30410746	     17.22999278	     89.95437384	      0.00000000	      0.00000000	     10.70152694	     11.13500346	      7.40885308	     28.76504968	     89.95437384	      0.00000000	      0.00000000
      2.20000000	     18.18619974	     -1.68638506	      1.27570412	      0.79062814	      0.94994254	     -1.04950219	     -0.07801587	     -0.45679453	     -9.23227965	    -41.31617574	     -0.72110330	      6.71018383	    -14.59715044	     12.20154369	    -21.67357103	     -0.28700154	     11.84623978	    -12.46732023	     -0.21759579	     11.32515443	     -0.81906533	     -5.34547508	    -24.53996444	      2.77920482	     -4.49277719	     -3.25645756	     -8.07296643	     -2.34379983	     17.19955975	     89.95437384	      0.00000000	      0.00000000	     11.05117177	     11.18783679	      7.76560468	     29.80726116	     89.95437384	      0.00000000	      0.00000000
      2.21000000	     17.63290998	     -1.51061857	      1.12453052	      0.79789354	      0.94844116	     -1.05010717	      1.27817158	     -0.91660277	    -10.11795610	    -39.84467198	     -0.69542072	      6.79787048	    -14.16472728	     11.96553921	    -21.53488710	     -0.56424315	     12.21150537	    -12.54843025	     -0.21901142	     11.58529907	     -0.78415309	     -5.24963618	    -24.04178019	      2.60954707	     -4.46582512	     -3.59993581	     -8.14453201	     -2.28686292	     17.26174806	     89.95437384	      0.00000000	      0.00000000	     11.59789693	     11.17709612	      7.73431336	     30.49649383	     89.95437384	      0.00000000	      0.00000000
      2.22000000	     17.66039629	     -1.79514137	      1.57387620	      0.80552129	      0.94801619	     -1.05080866	      1.39665592	     -0.56698621	    -11.10708761	    -37.32210438	     -0.65139361	      6.33791385	    -13.61387691	     12.00779848	    -22.15882709	     -0.14202448	     11.74236490	    -12.36421209	     -0.21579621	     12.15501816	     -0.97868155	     -5.31437431	    -24.13196329	      3.08068713	     -4.90375660	     -3.78951918	     -8.10926335	     -2.45767066	     17.24685654	     89.95437384	      0.00000000	      0.00000000	     11.94106117	     11.27061674	      7.78766881	     31.48134621	     89.95437384	      0.00000000	      0.00000000
      2.23000000	     17.55604373	     -1.96410947	      1.78001071	      0.81306113	      0.94721501	     -1.05146965	      1.81565199	     -0.52095367	    -12.41904908	    -35.08657135	     -0.61237619	      5.84995236	    -12.92178177	     11.93083953	    -22.56019702	      0.08028482	     11.64546914	    -12.34944898	     -0.21553855	     12.37826455	     -0.92264547	     -5.32336867	    -24.09229108	      3.37823655	     -5.07267566	     -4.02013771	     -8.15826406	     -2.63516663	     17.29870485	     89.95437384	      0.00000000	      0.00000000	     12.34334096	     11.26029594	      7.82427321	     32.41292400	     89.95437384	      0.00000000	      0.00000000
      2.24000000	     17.41564675	     -2.10511323	      1.97900240	      0.82052043	      0.94634650	     -1.05195110	      2.27747262	     -0.47428706	    -13.70351210	    -32.96107103	     -0.57527921	      5.25754487	    -12.04156630	     11.71410648	    -22.86838896	      0.28691222	     11.45957167	    -12.42892591	     -0.21692568	     12.70864001	     -0.87584743	     -5.36331248	    -24.03543141	      3.63037461	     -5.24693839	     -4.18085522	     -8.17777263	     -2.77051858	     17.27133939	     89.95437384	      0.00000000	      0.00000000	     12.70771162	     11.26044887	      7.86067337	     33.36663843	     89.95437384	      0.00000000	      0.00000000
      2.25000000	     17.24319597	     -2.23788199	      2.11731865	      0.82808213	      0.94537443	     -1.05230981	      2.73055398	     -0.43508643	    -15.04037458	    -30.81641440	     -0.53784789	      4.60107963	    -10.86805407	     11.34141797	    -23.14420220	      0.45934677	     11.26302197	    -12.52911814	     -0.21867436	     12.95855737	     -0.78228662	     -5.41939630	    -23.93492970	      3.84830890	     -5.37782390	     -4.34018041	     -8.19128128	     -3.00465849	     17.26602400	     89.95437384	      0.00000000	      0.00000000	     13.01214197	     11.23769216	      7.96299603	     34.34960256	     89.95437384	      0.00000000	      0.00000000
      2.26000000	     17.07950929	     -2.36114892	      2.23376477	      0.83565687	      0.94438534	     -1.05247119	      3.13496840	     -0.39022942	    -16.45971302	    -28.67087713	     -0.50040121	      4.02839133	     -9.50912710	     10.74015416	    -23.37608245	      0.63965021	     10.98801396	    -12.75364191	     -0.22259304	     13.29126612	     -0.66563682	     -5.49169211	    -23.84038086	      4.02688075	     -5.52661371	     -4.44945252	     -8.18575275	     -3.22566661	     17.25192942	     89.95437384	      0.00000000	      0.00000000	     13.23993859	     11.29307821	      7.94428008	     35.37948437	     89.95437384	      0.00000000	      0.00000000
      2.27000000	     16.94961738	     -2.49339327	      2.47741820	      0.84318525	      0.94343077	     -1.05281402	      3.46829489	     -0.30618133	    -17.89655423	    -26.59854454	     -0.46423218	      3.68483342	     -7.97820446	      9.93269496	    -23.65951321	      0.86378566	     10.70154037	    -12.89358371	     -0.22503549	     13.53191984	     -0.50649660	     -5.61098880	    -23.80661131	      4.27548416	     -5.68482231	     -4.51463767	     -8.18483133	     -3.39373247	     17.08237000	     89.95437384	      0.00000000	      0.00000000	     13.48927613	     11.24327741	      7.95845864	     36.46064171	     89.95437384	      0.00000000	      0.00000000
      2.28000000	     16.74602305	     -2.65774605	      2.52970866	      0.85073156	      0.94231277	     -1.05272043	      3.88573879	     -0.11583244	    -19.06657803	    -24.59630849	     -0.42928657	      3.55218115	     -6.42291172	      9.30007984	    -23.85428383	      1.07141733	     10.49478158	    -13.10192960	     -0.22867181	     14.03550875	     -0.34615689	     -5.67826476	    -23.69044337	      4.46683052	     -5.72592832	     -4.50470582	     -8.20497734	     -3.45609708	     16.89604925	     89.95437384	      0.00000000	      0.00000000	     13.65025070	     11.26055560	      7.89712234	     37.53847764	     89.95437384	      0.00000000	      0.00000000
